<?xml version="1.0" encoding="UTF-8" standalone="no"?>
<svg
   xmlns:dc="http://purl.org/dc/elements/1.1/"
   xmlns:cc="http://creativecommons.org/ns#"
   xmlns:rdf="http://www.w3.org/1999/02/22-rdf-syntax-ns#"
   xmlns:svg="http://www.w3.org/2000/svg"
   xmlns="http://www.w3.org/2000/svg"
   width="5.000185mm"
   height="3.5736401mm"
   viewBox="0 0 5.000185 3.5736401"
   version="1.1"
   id="svg1739">
  <defs
     id="defs1733" />
  <metadata
     id="metadata1736">
    <rdf:RDF>
      <cc:Work
         rdf:about="">
        <dc:format>image/svg+xml</dc:format>
        <dc:type
           rdf:resource="http://purl.org/dc/dcmitype/StillImage" />
        <dc:title></dc:title>
      </cc:Work>
    </rdf:RDF>
  </metadata>
  <g
     id="layer1"
     transform="translate(-196.93486,-164.92149)">
    <g
       id="g1697"
       transform="matrix(0.35277777,0,0,-0.35277777,199.42962,168.49336)">
      <path
         d="m 0,0 c -2.149,0 -4.298,-0.001 -6.447,0.002 -0.103,0 -0.211,0.007 -0.307,0.04 -0.178,0.062 -0.283,0.199 -0.308,0.39 -0.008,0.061 -0.009,0.123 -0.009,0.185 -0.001,2.96 -0.001,5.92 0,8.88 0,0.057 10e-4,0.114 0.007,0.171 0.023,0.236 0.19,0.41 0.426,0.443 0.066,0.009 0.133,0.013 0.199,0.013 4.302,10e-4 8.605,10e-4 12.908,10e-4 0.204,0 0.406,-0.018 0.526,-0.212 C 7.045,9.832 7.078,9.733 7.091,9.639 7.107,9.518 7.096,9.393 7.096,9.269 7.096,6.385 7.091,3.501 7.102,0.617 7.103,0.189 6.842,-0.006 6.475,-0.005 4.317,0.005 2.158,0 0,0 M 6.086,8.513 C 6.03,8.469 5.992,8.442 5.957,8.412 4.109,6.85 2.262,5.288 0.414,3.726 0.121,3.478 -0.09,3.477 -0.38,3.722 -2.213,5.272 -4.046,6.821 -5.879,8.371 -5.932,8.415 -5.986,8.458 -6.051,8.51 V 1.012 H 6.086 Z M 5.193,9.104 H -5.168 C -3.424,7.628 -1.704,6.172 0.017,4.715 1.744,6.18 3.458,7.633 5.193,9.104"
         style="fill:#b00d23;fill-opacity:1;fill-rule:nonzero;stroke:none"
         id="path1699" />
    </g>
  </g>
</svg>
