<?xml version="1.0" encoding="UTF-8" standalone="no"?>
<svg
   xmlns:dc="http://purl.org/dc/elements/1.1/"
   xmlns:cc="http://creativecommons.org/ns#"
   xmlns:rdf="http://www.w3.org/1999/02/22-rdf-syntax-ns#"
   xmlns:svg="http://www.w3.org/2000/svg"
   xmlns="http://www.w3.org/2000/svg"
   width="5.5000076mm"
   height="5.499609mm"
   viewBox="0 0 5.5000076 5.499609"
   version="1.1"
   id="svg1739">
  <defs
     id="defs1733" />
  <metadata
     id="metadata1736">
    <rdf:RDF>
      <cc:Work
         rdf:about="">
        <dc:format>image/svg+xml</dc:format>
        <dc:type
           rdf:resource="http://purl.org/dc/dcmitype/StillImage" />
        <dc:title></dc:title>
      </cc:Work>
    </rdf:RDF>
  </metadata>
  <g
     id="layer1"
     transform="translate(-203.67293,-167.78435)">
    <g
       id="g1701"
       transform="matrix(0.35277777,0,0,-0.35277777,205.22829,167.96462)">
      <path
         d="m 0,0 c -0.338,0.332 -0.764,0.511 -1.212,0.511 -0.046,0 -0.092,-0.002 -0.138,-0.006 -0.503,-0.041 -0.952,-0.299 -1.265,-0.727 -0.778,-1.065 -1.317,-2.245 -1.602,-3.509 -0.126,-0.559 -0.245,-1.223 -0.167,-1.911 0.125,-1.095 0.588,-2.051 1.376,-2.842 1.045,-1.047 2.091,-2.093 3.137,-3.139 l 2.035,-2.034 c 0.453,-0.454 0.937,-0.789 1.479,-1.024 1.021,-0.441 2.131,-0.514 3.396,-0.224 1.201,0.276 2.357,0.832 3.437,1.653 0.411,0.312 0.659,0.753 0.7,1.24 0.039,0.472 -0.124,0.929 -0.461,1.287 C 9.928,-9.887 9.11,-9.09 8.344,-8.355 8.194,-8.211 7.966,-8.09 7.717,-8.023 6.878,-7.794 6.105,-8.144 5.7,-8.937 5.614,-9.106 5.529,-9.276 5.445,-9.446 l -0.19,-0.381 -4.41,4.423 0.372,0.187 c 0.172,0.087 0.346,0.174 0.52,0.26 0.298,0.146 0.518,0.335 0.672,0.578 0.481,0.753 0.388,1.586 -0.25,2.229 C 1.447,-1.432 0.72,-0.709 0,0 M 1.466,-3.487 C 1.44,-3.644 1.324,-3.776 1.12,-3.878 L 0.678,-4.102 c -0.365,-0.185 -0.742,-0.376 -1.119,-0.554 -0.215,-0.101 -0.353,-0.27 -0.388,-0.476 -0.037,-0.216 0.042,-0.446 0.212,-0.615 1.344,-1.331 2.702,-2.693 4.015,-4.01 l 1.51,-1.513 c 0.27,-0.271 0.579,-0.325 0.827,-0.147 0.104,0.075 0.205,0.196 0.276,0.332 0.189,0.359 0.371,0.729 0.548,1.088 l 0.225,0.454 c 0.103,0.207 0.235,0.324 0.393,0.35 0.157,0.025 0.319,-0.044 0.481,-0.206 0.691,-0.692 1.382,-1.385 2.072,-2.078 0.146,-0.146 0.212,-0.283 0.204,-0.417 -0.008,-0.129 -0.082,-0.246 -0.227,-0.359 -0.3,-0.235 -0.623,-0.448 -0.958,-0.632 -0.764,-0.421 -1.613,-0.717 -2.524,-0.881 -0.245,-0.044 -0.485,-0.066 -0.717,-0.066 -0.927,0 -1.75,0.351 -2.452,1.047 -1.553,1.539 -3.122,3.113 -4.64,4.635 l -0.535,0.537 c -0.683,0.685 -1.026,1.488 -1.047,2.455 l -10e-4,0.005 10e-4,0.005 c 0.043,0.786 0.234,1.607 0.566,2.438 0.233,0.585 0.555,1.162 0.957,1.716 0.116,0.159 0.248,0.246 0.395,0.258 0.147,0.012 0.289,-0.053 0.427,-0.19 0.696,-0.695 1.391,-1.39 2.086,-2.086 0.158,-0.159 0.226,-0.319 0.201,-0.475"
         style="fill:#b00d23;fill-opacity:1;fill-rule:nonzero;stroke:none"
         id="path1703" />
    </g>
  </g>
</svg>
