<?xml version="1.0" encoding="utf-8"?>
<!-- Generator: Adobe Illustrator 22.1.0, SVG Export Plug-In . SVG Version: 6.00 Build 0)  -->
<svg version="1.1" id="Layer_1" xmlns="http://www.w3.org/2000/svg" xmlns:xlink="http://www.w3.org/1999/xlink" x="0px" y="0px"
	 width="15px" height="15px" viewBox="0 0 15 15" style="enable-background:new 0 0 15 15;" xml:space="preserve">
<style type="text/css">
	.st0{clip-path:url(#SVGID_2_);fill:#241F46;}
	.st1{clip-path:url(#SVGID_4_);fill:#241F46;}
</style>
<g>
	<g>
		<defs>
			<rect id="SVGID_1_" x="1.2" y="3.6" width="12.7" height="10.6"/>
		</defs>
		<clipPath id="SVGID_2_">
			<use xlink:href="#SVGID_1_"  style="overflow:visible;"/>
		</clipPath>
		<path class="st0" d="M12,4.6c-1.9-1.1-4.6-1-4.6-1S4.9,3.5,3,4.6S1.2,6.1,1.2,7s0.9,1,0.9,1h1.2c1.2,0,1.2-0.9,1.2-0.9
			C4.7,5,7.5,5,7.5,5s2.9,0,3.1,2.1c0,0,0,0.9,1.2,0.9H13c0,0,0.9-0.1,0.9-1C13.9,6.1,14,5.6,12,4.6"/>
	</g>
	<g>
		<defs>
			<rect id="SVGID_3_" x="1.2" y="3.6" width="12.7" height="10.6"/>
		</defs>
		<clipPath id="SVGID_4_">
			<use xlink:href="#SVGID_3_"  style="overflow:visible;"/>
		</clipPath>
		<path class="st1" d="M7.5,13.3c-1.3,0-2.4-1.1-2.4-2.5c0-1.3,1.1-2.4,2.4-2.4s2.4,1.1,2.4,2.4C10,12.2,8.9,13.3,7.5,13.3
			 M10.4,7.7H9.5V6.3H8.1v1.4H6.7V6.3H5.2v1.4H4.6l-2.3,4.1v2.4h10.5v-2.4L10.4,7.7z"/>
	</g>
</g>
</svg>
