<?xml version="1.0" encoding="UTF-8" standalone="no"?>
<svg
   xmlns:dc="http://purl.org/dc/elements/1.1/"
   xmlns:cc="http://creativecommons.org/ns#"
   xmlns:rdf="http://www.w3.org/1999/02/22-rdf-syntax-ns#"
   xmlns:svg="http://www.w3.org/2000/svg"
   xmlns="http://www.w3.org/2000/svg"
   width="4.9999423mm"
   height="4.9985085mm"
   viewBox="0 0 4.9999423 4.9985085"
   version="1.1"
   id="svg1739">
  <defs
     id="defs1733" />
  <metadata
     id="metadata1736">
    <rdf:RDF>
      <cc:Work
         rdf:about="">
        <dc:format>image/svg+xml</dc:format>
        <dc:type
           rdf:resource="http://purl.org/dc/dcmitype/StillImage" />
        <dc:title></dc:title>
      </cc:Work>
    </rdf:RDF>
  </metadata>
  <g
     id="layer1"
     transform="translate(-195.55955,-162.29836)">
    <g
       id="g1693"
       transform="matrix(0.35277777,0,0,-0.35277777,199.82005,166.56627)">
      <path
         d="m 0,0 c 1.344,1.337 2.089,3.106 2.096,4.98 0.008,1.887 -0.729,3.672 -2.076,5.026 -1.337,1.346 -3.113,2.088 -5,2.092 h -0.012 c -1.878,0 -3.649,-0.736 -4.988,-2.072 -1.332,-1.33 -2.097,-3.157 -2.097,-5.011 0,-1.857 0.727,-3.62 2.046,-4.964 1.34,-1.365 3.128,-2.119 5.036,-2.122 h 0.01 C -3.113,-2.071 -1.343,-1.336 0,0 M -0.031,1.665 C -0.73,0.65 -1.621,-0.071 -2.756,-0.538 l -0.232,-0.096 0.093,0.233 c 0.039,0.097 0.079,0.192 0.119,0.286 0.086,0.207 0.168,0.402 0.234,0.603 0.102,0.305 0.19,0.623 0.275,0.929 0.024,0.086 0.047,0.171 0.071,0.256 0.018,0.063 0.05,0.179 0.208,0.179 h 0.002 c 0.431,-0.003 0.861,-0.003 1.292,-0.003 l 0.533,-10e-4 c 0.028,0 0.048,-0.009 0.063,-0.016 0.004,-0.002 0.011,-0.005 0.02,-0.009 L 0.044,1.773 Z M 0.684,6.997 C 0.711,6.875 0.74,6.753 0.77,6.63 0.836,6.357 0.903,6.075 0.946,5.79 1.059,5.043 1.008,4.267 0.795,3.483 0.764,3.367 0.725,3.231 0.674,3.095 0.648,3.025 0.563,2.95 0.479,2.949 0.076,2.947 -0.331,2.946 -0.735,2.946 c -0.299,0 -0.596,10e-4 -0.889,10e-4 h -0.16 c -0.026,0 -0.047,0.007 -0.064,0.012 -0.006,10e-4 -0.012,0.003 -0.018,0.005 l -0.092,0.022 0.011,0.093 c 0.157,1.297 0.156,2.603 -0.002,3.882 L -1.964,7.08 h 2.63 z m -3.455,3.576 C -1.622,10.097 -0.72,9.367 -0.014,8.34 L 0.1,8.174 H -0.56 C -1.052,8.175 -1.516,8.175 -1.986,8.172 h -0.002 c -0.154,0 -0.187,0.112 -0.205,0.172 l -0.056,0.183 c -0.134,0.446 -0.273,0.907 -0.42,1.357 -0.038,0.117 -0.093,0.233 -0.15,0.355 -0.029,0.062 -0.059,0.126 -0.089,0.194 l -0.107,0.241 z m -3.91,-2.259 c 0.015,0.058 0.031,0.114 0.046,0.171 0.035,0.125 0.067,0.243 0.103,0.364 0.146,0.491 0.369,1.125 0.797,1.67 0.097,0.124 0.218,0.241 0.359,0.348 0.242,0.184 0.509,0.184 0.772,0.003 0.248,-0.171 0.414,-0.404 0.544,-0.61 0.389,-0.617 0.597,-1.315 0.75,-1.916 0.008,-0.031 0.002,-0.056 -0.002,-0.069 L -3.313,8.269 -3.327,8.18 h -3.392 z m -3.281,0.031 c 0.687,1.013 1.589,1.743 2.756,2.232 l 0.258,0.108 -0.121,-0.252 C -7.391,9.766 -7.633,9.056 -7.808,8.263 L -7.826,8.18 h -2.248 z m -0.445,-5.402 c -0.178,0 -0.236,0.103 -0.27,0.204 -0.217,0.649 -0.32,1.321 -0.305,1.997 0.014,0.613 0.123,1.211 0.323,1.78 0.026,0.074 0.115,0.157 0.2,0.158 0.683,0.004 1.378,0.003 2.049,0.002 h 0.214 c 0.021,0 0.041,-0.004 0.062,-0.013 L -8.061,7.05 -8.064,6.966 c -0.009,-0.2 -0.02,-0.399 -0.031,-0.599 -0.024,-0.443 -0.049,-0.901 -0.05,-1.35 0,-0.446 0.024,-0.883 0.049,-1.346 0.011,-0.201 0.022,-0.404 0.031,-0.608 L -8.061,2.959 -8.188,2.951 c -0.026,-0.002 -0.062,-0.005 -0.1,-0.005 -0.207,0 -0.415,0 -0.623,0 -0.489,0 -0.995,0 -1.493,-0.003 z m 3.22,-3.46 c -0.627,0.023 -2.282,1.342 -2.765,2.204 l -0.088,0.158 h 2.211 L -7.81,1.763 c 0.192,-0.837 0.422,-1.513 0.723,-2.128 l 0.077,-0.159 z m 0.265,3.558 c -0.181,0.824 -0.177,3.229 0.006,3.958 l 0.02,0.08 h 3.814 l 0.017,-0.084 c 0.143,-0.697 0.218,-2.581 0.012,-3.947 l -0.014,-0.09 h -3.837 z m 1.546,-3.884 c -0.29,0.202 -0.48,0.49 -0.642,0.772 -0.325,0.565 -0.504,1.17 -0.65,1.74 -0.006,0.023 -0.005,0.043 -0.004,0.058 0,0.003 0,0.007 0,0.011 v 0.106 h 3.431 L -3.286,1.705 C -3.325,1.588 -3.361,1.472 -3.398,1.356 -3.482,1.091 -3.561,0.841 -3.655,0.589 c -0.19,-0.514 -0.415,-0.9 -0.707,-1.216 -0.083,-0.089 -0.179,-0.171 -0.28,-0.238 -0.112,-0.074 -0.229,-0.111 -0.347,-0.111 -0.129,0 -0.259,0.044 -0.387,0.133"
         style="fill:#b00d23;fill-opacity:1;fill-rule:nonzero;stroke:none"
         id="path1695" />
    </g>
  </g>
</svg>
